<mxfile host="Electron" agent="Mozilla/5.0 (Windows NT 10.0; Win64; x64) AppleWebKit/537.36 (KHTML, like Gecko) draw.io/24.7.8 Chrome/128.0.6613.36 Electron/32.0.1 Safari/537.36" version="24.7.8">
  <diagram name="Page-1" id="6qWFiqdNJrCx799d8n2D">
    <mxGraphModel dx="1275" dy="1089" grid="1" gridSize="10" guides="1" tooltips="1" connect="1" arrows="1" fold="1" page="1" pageScale="1" pageWidth="889" pageHeight="420" math="0" shadow="0">
      <root>
        <mxCell id="0" />
        <mxCell id="1" parent="0" />
        <mxCell id="UeA101swzo6sXOOQJebK-29" value="" style="endArrow=none;html=1;rounded=0;" parent="1" edge="1">
          <mxGeometry width="50" height="50" relative="1" as="geometry">
            <mxPoint x="800" y="391" as="sourcePoint" />
            <mxPoint x="87" y="391" as="targetPoint" />
          </mxGeometry>
        </mxCell>
        <mxCell id="UeA101swzo6sXOOQJebK-48" value="" style="endArrow=none;html=1;rounded=0;dashed=1;dashPattern=8 8;strokeColor=#666666;" parent="1" edge="1">
          <mxGeometry width="50" height="50" relative="1" as="geometry">
            <mxPoint x="700" y="296" as="sourcePoint" />
            <mxPoint x="86" y="296" as="targetPoint" />
          </mxGeometry>
        </mxCell>
        <mxCell id="UeA101swzo6sXOOQJebK-49" value="" style="endArrow=none;html=1;rounded=0;dashed=1;dashPattern=8 8;strokeColor=#666666;" parent="1" edge="1">
          <mxGeometry width="50" height="50" relative="1" as="geometry">
            <mxPoint x="701" y="202" as="sourcePoint" />
            <mxPoint x="87" y="202" as="targetPoint" />
          </mxGeometry>
        </mxCell>
        <mxCell id="UeA101swzo6sXOOQJebK-50" value="" style="endArrow=none;html=1;rounded=0;dashed=1;dashPattern=8 8;strokeColor=#666666;" parent="1" edge="1">
          <mxGeometry width="50" height="50" relative="1" as="geometry">
            <mxPoint x="701" y="106" as="sourcePoint" />
            <mxPoint x="87" y="106" as="targetPoint" />
          </mxGeometry>
        </mxCell>
        <mxCell id="UeA101swzo6sXOOQJebK-51" value="" style="endArrow=none;html=1;rounded=0;dashed=1;dashPattern=8 8;strokeColor=#666666;" parent="1" edge="1">
          <mxGeometry width="50" height="50" relative="1" as="geometry">
            <mxPoint x="702" y="13" as="sourcePoint" />
            <mxPoint x="88" y="13" as="targetPoint" />
          </mxGeometry>
        </mxCell>
        <mxCell id="UeA101swzo6sXOOQJebK-13" value="" style="whiteSpace=wrap;html=1;aspect=fixed;fillColor=#7EA6E0;strokeColor=#7EA6E0;" parent="1" vertex="1">
          <mxGeometry x="721" y="84" width="10" height="10" as="geometry" />
        </mxCell>
        <mxCell id="UeA101swzo6sXOOQJebK-14" value="MÃ©moire flash" style="text;strokeColor=none;align=left;fillColor=none;html=1;verticalAlign=middle;whiteSpace=wrap;rounded=0;" parent="1" vertex="1">
          <mxGeometry x="736" y="74" width="120" height="30" as="geometry" />
        </mxCell>
        <mxCell id="UeA101swzo6sXOOQJebK-15" value="" style="whiteSpace=wrap;html=1;aspect=fixed;fillColor=#EA6B66;strokeColor=#EA6B66;" parent="1" vertex="1">
          <mxGeometry x="721" y="104" width="10" height="10" as="geometry" />
        </mxCell>
        <mxCell id="UeA101swzo6sXOOQJebK-16" value="Disque dur" style="text;strokeColor=none;align=left;fillColor=none;html=1;verticalAlign=middle;whiteSpace=wrap;rounded=0;" parent="1" vertex="1">
          <mxGeometry x="736" y="94" width="120" height="30" as="geometry" />
        </mxCell>
        <mxCell id="UeA101swzo6sXOOQJebK-30" value="2013" style="text;strokeColor=none;align=center;fillColor=none;html=1;verticalAlign=middle;whiteSpace=wrap;rounded=0;" parent="1" vertex="1">
          <mxGeometry x="91" y="399" width="40" height="20" as="geometry" />
        </mxCell>
        <mxCell id="UeA101swzo6sXOOQJebK-31" value="2014" style="text;strokeColor=none;align=center;fillColor=none;html=1;verticalAlign=middle;whiteSpace=wrap;rounded=0;" parent="1" vertex="1">
          <mxGeometry x="141" y="399" width="40" height="20" as="geometry" />
        </mxCell>
        <mxCell id="UeA101swzo6sXOOQJebK-32" value="2015" style="text;strokeColor=none;align=center;fillColor=none;html=1;verticalAlign=middle;whiteSpace=wrap;rounded=0;" parent="1" vertex="1">
          <mxGeometry x="191" y="399" width="40" height="20" as="geometry" />
        </mxCell>
        <mxCell id="UeA101swzo6sXOOQJebK-33" value="2016" style="text;strokeColor=none;align=center;fillColor=none;html=1;verticalAlign=middle;whiteSpace=wrap;rounded=0;" parent="1" vertex="1">
          <mxGeometry x="244" y="399" width="40" height="20" as="geometry" />
        </mxCell>
        <mxCell id="UeA101swzo6sXOOQJebK-34" value="2017" style="text;strokeColor=none;align=center;fillColor=none;html=1;verticalAlign=middle;whiteSpace=wrap;rounded=0;" parent="1" vertex="1">
          <mxGeometry x="296" y="399" width="40" height="20" as="geometry" />
        </mxCell>
        <mxCell id="UeA101swzo6sXOOQJebK-35" value="2018" style="text;strokeColor=none;align=center;fillColor=none;html=1;verticalAlign=middle;whiteSpace=wrap;rounded=0;" parent="1" vertex="1">
          <mxGeometry x="347" y="399" width="40" height="20" as="geometry" />
        </mxCell>
        <mxCell id="UeA101swzo6sXOOQJebK-36" value="2019" style="text;strokeColor=none;align=center;fillColor=none;html=1;verticalAlign=middle;whiteSpace=wrap;rounded=0;" parent="1" vertex="1">
          <mxGeometry x="398" y="399" width="40" height="20" as="geometry" />
        </mxCell>
        <mxCell id="UeA101swzo6sXOOQJebK-37" value="2020" style="text;strokeColor=none;align=center;fillColor=none;html=1;verticalAlign=middle;whiteSpace=wrap;rounded=0;" parent="1" vertex="1">
          <mxGeometry x="446" y="399" width="40" height="20" as="geometry" />
        </mxCell>
        <mxCell id="UeA101swzo6sXOOQJebK-38" value="2021" style="text;strokeColor=none;align=center;fillColor=none;html=1;verticalAlign=middle;whiteSpace=wrap;rounded=0;" parent="1" vertex="1">
          <mxGeometry x="499" y="399" width="40" height="20" as="geometry" />
        </mxCell>
        <mxCell id="UeA101swzo6sXOOQJebK-39" value="2022" style="text;strokeColor=none;align=center;fillColor=none;html=1;verticalAlign=middle;whiteSpace=wrap;rounded=0;" parent="1" vertex="1">
          <mxGeometry x="551" y="399" width="40" height="20" as="geometry" />
        </mxCell>
        <mxCell id="UeA101swzo6sXOOQJebK-40" value="2023" style="text;strokeColor=none;align=center;fillColor=none;html=1;verticalAlign=middle;whiteSpace=wrap;rounded=0;" parent="1" vertex="1">
          <mxGeometry x="601" y="399" width="40" height="20" as="geometry" />
        </mxCell>
        <mxCell id="UeA101swzo6sXOOQJebK-41" value="2024" style="text;strokeColor=none;align=center;fillColor=none;html=1;verticalAlign=middle;whiteSpace=wrap;rounded=0;" parent="1" vertex="1">
          <mxGeometry x="651" y="399" width="40" height="20" as="geometry" />
        </mxCell>
        <mxCell id="UeA101swzo6sXOOQJebK-42" value="1 CHF" style="text;strokeColor=none;align=right;fillColor=none;html=1;verticalAlign=middle;whiteSpace=wrap;rounded=0;" parent="1" vertex="1">
          <mxGeometry x="39" y="384" width="40" height="20" as="geometry" />
        </mxCell>
        <mxCell id="UeA101swzo6sXOOQJebK-43" value="10 CHF" style="text;strokeColor=none;align=right;fillColor=none;html=1;verticalAlign=middle;whiteSpace=wrap;rounded=0;" parent="1" vertex="1">
          <mxGeometry x="20" y="288" width="59" height="20" as="geometry" />
        </mxCell>
        <mxCell id="UeA101swzo6sXOOQJebK-44" value="100 CHF" style="text;strokeColor=none;align=right;fillColor=none;html=1;verticalAlign=middle;whiteSpace=wrap;rounded=0;" parent="1" vertex="1">
          <mxGeometry x="20" y="194" width="59" height="20" as="geometry" />
        </mxCell>
        <mxCell id="UeA101swzo6sXOOQJebK-45" value="1&#39;000 CHF" style="text;strokeColor=none;align=right;fillColor=none;html=1;verticalAlign=middle;whiteSpace=wrap;rounded=0;" parent="1" vertex="1">
          <mxGeometry x="10" y="97" width="69" height="20" as="geometry" />
        </mxCell>
        <mxCell id="UeA101swzo6sXOOQJebK-46" value="10&#39;000 CHF" style="text;strokeColor=none;align=right;fillColor=none;html=1;verticalAlign=middle;whiteSpace=wrap;rounded=0;" parent="1" vertex="1">
          <mxGeometry x="10" y="4" width="69" height="20" as="geometry" />
        </mxCell>
        <mxCell id="UeA101swzo6sXOOQJebK-52" value="" style="endArrow=none;html=1;rounded=0;" parent="1" edge="1">
          <mxGeometry width="50" height="50" relative="1" as="geometry">
            <mxPoint x="112" y="397" as="sourcePoint" />
            <mxPoint x="112" y="14" as="targetPoint" />
          </mxGeometry>
        </mxCell>
        <mxCell id="UeA101swzo6sXOOQJebK-53" value="" style="endArrow=none;html=1;rounded=0;" parent="1" edge="1">
          <mxGeometry width="50" height="50" relative="1" as="geometry">
            <mxPoint x="160.89" y="396.5" as="sourcePoint" />
            <mxPoint x="160.89" y="391.5" as="targetPoint" />
          </mxGeometry>
        </mxCell>
        <mxCell id="UeA101swzo6sXOOQJebK-54" value="" style="endArrow=none;html=1;rounded=0;" parent="1" edge="1">
          <mxGeometry width="50" height="50" relative="1" as="geometry">
            <mxPoint x="212" y="396.5" as="sourcePoint" />
            <mxPoint x="212" y="391.5" as="targetPoint" />
          </mxGeometry>
        </mxCell>
        <mxCell id="UeA101swzo6sXOOQJebK-55" value="" style="endArrow=none;html=1;rounded=0;editable=0;" parent="1" edge="1">
          <mxGeometry width="50" height="50" relative="1" as="geometry">
            <mxPoint x="263.97" y="396.5" as="sourcePoint" />
            <mxPoint x="263.97" y="391.5" as="targetPoint" />
          </mxGeometry>
        </mxCell>
        <mxCell id="UeA101swzo6sXOOQJebK-56" value="" style="endArrow=none;html=1;rounded=0;editable=0;" parent="1" edge="1">
          <mxGeometry width="50" height="50" relative="1" as="geometry">
            <mxPoint x="315.97" y="396.5" as="sourcePoint" />
            <mxPoint x="315.97" y="391.5" as="targetPoint" />
          </mxGeometry>
        </mxCell>
        <mxCell id="UeA101swzo6sXOOQJebK-57" value="" style="endArrow=none;html=1;rounded=0;editable=0;" parent="1" edge="1">
          <mxGeometry width="50" height="50" relative="1" as="geometry">
            <mxPoint x="366.97" y="396.5" as="sourcePoint" />
            <mxPoint x="366.97" y="391.5" as="targetPoint" />
          </mxGeometry>
        </mxCell>
        <mxCell id="UeA101swzo6sXOOQJebK-58" value="" style="endArrow=none;html=1;rounded=0;editable=0;" parent="1" edge="1">
          <mxGeometry width="50" height="50" relative="1" as="geometry">
            <mxPoint x="417.97" y="396.5" as="sourcePoint" />
            <mxPoint x="417.97" y="391.5" as="targetPoint" />
          </mxGeometry>
        </mxCell>
        <mxCell id="UeA101swzo6sXOOQJebK-59" value="" style="endArrow=none;html=1;rounded=0;editable=0;" parent="1" edge="1">
          <mxGeometry width="50" height="50" relative="1" as="geometry">
            <mxPoint x="465.97" y="396.5" as="sourcePoint" />
            <mxPoint x="465.97" y="391.5" as="targetPoint" />
          </mxGeometry>
        </mxCell>
        <mxCell id="UeA101swzo6sXOOQJebK-60" value="" style="endArrow=none;html=1;rounded=0;editable=0;" parent="1" edge="1">
          <mxGeometry width="50" height="50" relative="1" as="geometry">
            <mxPoint x="518.97" y="396.5" as="sourcePoint" />
            <mxPoint x="518.97" y="391.5" as="targetPoint" />
          </mxGeometry>
        </mxCell>
        <mxCell id="UeA101swzo6sXOOQJebK-61" value="" style="endArrow=none;html=1;rounded=0;editable=0;" parent="1" edge="1">
          <mxGeometry width="50" height="50" relative="1" as="geometry">
            <mxPoint x="570.97" y="396.5" as="sourcePoint" />
            <mxPoint x="570.97" y="391.5" as="targetPoint" />
          </mxGeometry>
        </mxCell>
        <mxCell id="UeA101swzo6sXOOQJebK-62" value="" style="endArrow=none;html=1;rounded=0;editable=0;" parent="1" edge="1">
          <mxGeometry width="50" height="50" relative="1" as="geometry">
            <mxPoint x="621" y="396.5" as="sourcePoint" />
            <mxPoint x="621" y="391.5" as="targetPoint" />
          </mxGeometry>
        </mxCell>
        <mxCell id="UeA101swzo6sXOOQJebK-66" value="" style="endArrow=none;html=1;rounded=0;editable=0;" parent="1" edge="1">
          <mxGeometry width="50" height="50" relative="1" as="geometry">
            <mxPoint x="670.92" y="396.5" as="sourcePoint" />
            <mxPoint x="670.92" y="391.5" as="targetPoint" />
          </mxGeometry>
        </mxCell>
        <mxCell id="Dycy06SMQHMc8G7w8VSN-1" value="2025" style="text;strokeColor=none;align=center;fillColor=none;html=1;verticalAlign=middle;whiteSpace=wrap;rounded=0;" vertex="1" parent="1">
          <mxGeometry x="700" y="399" width="40" height="20" as="geometry" />
        </mxCell>
        <mxCell id="Dycy06SMQHMc8G7w8VSN-2" value="2026" style="text;strokeColor=none;align=center;fillColor=none;html=1;verticalAlign=middle;whiteSpace=wrap;rounded=0;" vertex="1" parent="1">
          <mxGeometry x="750" y="399" width="40" height="20" as="geometry" />
        </mxCell>
        <mxCell id="Dycy06SMQHMc8G7w8VSN-3" value="" style="endArrow=none;html=1;rounded=0;editable=0;" edge="1" parent="1">
          <mxGeometry width="50" height="50" relative="1" as="geometry">
            <mxPoint x="720" y="396.5" as="sourcePoint" />
            <mxPoint x="720" y="391.5" as="targetPoint" />
          </mxGeometry>
        </mxCell>
        <mxCell id="Dycy06SMQHMc8G7w8VSN-4" value="" style="endArrow=none;html=1;rounded=0;editable=0;" edge="1" parent="1">
          <mxGeometry width="50" height="50" relative="1" as="geometry">
            <mxPoint x="769.92" y="396.5" as="sourcePoint" />
            <mxPoint x="769.92" y="391.5" as="targetPoint" />
          </mxGeometry>
        </mxCell>
        <mxCell id="Dycy06SMQHMc8G7w8VSN-7" value="" style="endArrow=none;html=1;rounded=0;strokeColor=#EA6B66;strokeWidth=3.1496;curved=1;" edge="1" parent="1">
          <mxGeometry width="50" height="50" relative="1" as="geometry">
            <mxPoint x="111" y="233" as="sourcePoint" />
            <mxPoint x="860" y="300" as="targetPoint" />
            <Array as="points">
              <mxPoint x="163" y="236" />
              <mxPoint x="213" y="244" />
              <mxPoint x="260" y="254" />
              <mxPoint x="308" y="261" />
              <mxPoint x="356" y="265" />
              <mxPoint x="406" y="270" />
              <mxPoint x="455" y="274" />
              <mxPoint x="505" y="276" />
              <mxPoint x="551" y="278" />
              <mxPoint x="600" y="281" />
              <mxPoint x="648" y="283" />
              <mxPoint x="696" y="286" />
              <mxPoint x="744" y="289" />
              <mxPoint x="794" y="291" />
            </Array>
          </mxGeometry>
        </mxCell>
        <mxCell id="Dycy06SMQHMc8G7w8VSN-8" value="" style="endArrow=none;html=1;rounded=0;curved=1;strokeColor=#7EA6E0;strokeWidth=3.1496;" edge="1" parent="1">
          <mxGeometry width="50" height="50" relative="1" as="geometry">
            <mxPoint x="870" y="320" as="sourcePoint" />
            <mxPoint x="113" y="84" as="targetPoint" />
            <Array as="points">
              <mxPoint x="839" y="311" />
              <mxPoint x="792" y="301" />
              <mxPoint x="696" y="275" />
              <mxPoint x="646" y="263" />
              <mxPoint x="596" y="246" />
              <mxPoint x="549" y="233" />
              <mxPoint x="501" y="217" />
              <mxPoint x="453" y="201" />
              <mxPoint x="403" y="181" />
              <mxPoint x="354" y="155" />
              <mxPoint x="306" y="143" />
              <mxPoint x="256" y="141" />
              <mxPoint x="212" y="122" />
              <mxPoint x="161" y="103" />
            </Array>
          </mxGeometry>
        </mxCell>
        <mxCell id="Dycy06SMQHMc8G7w8VSN-10" value="Prix par Tebibyte" style="text;strokeColor=none;align=center;fillColor=none;html=1;verticalAlign=middle;whiteSpace=wrap;rounded=0;rotation=-90;" vertex="1" parent="1">
          <mxGeometry x="-41" y="195" width="120" height="30" as="geometry" />
        </mxCell>
      </root>
    </mxGraphModel>
  </diagram>
</mxfile>
